# xmcd
#
# Track frame offsets: 
#        150
#        9082
#        20445
#        31430
#        41625
#        51125
#        63960
#        73382
#        81822
#        92775
#        106070
#        114562
#        125550
#        135435
#        148032
#
# Disc length: 2131 seconds
#
# Revision: 0
# Processed by: cddbd v1.5.2PL0 Copyright (c) Steve Scherf et al.
# Submitted via: ExactAudioCopy v1.0b1
#
DISCID=c808510f
DTITLE=Jindra Kejak - Holky rohaty
DYEAR=2003
DGENRE=Country
TTITLE0=Hladovej vlk
TTITLE1=Mozna ze sem jinej
TTITLE2=Asi to tak ma byt
TTITLE3=Mozna
TTITLE4=Mejte se fajn
TTITLE5=Dobry a spatny
TTITLE6=Boli me boli
TTITLE7=Rozcuchana
TTITLE8=Nekdy staci jen malo
TTITLE9=Dobrou noc (Zuzance)
TTITLE10=Holky rohaty
TTITLE11=Mej se
TTITLE12=Drubez
TTITLE13=Vizovice
TTITLE14=Uz zhasina sal
EXTD=
EXTT0=
EXTT1=
EXTT2=
EXTT3=
EXTT4=
EXTT5=
EXTT6=
EXTT7=
EXTT8=
EXTT9=
EXTT10=
EXTT11=
EXTT12=
EXTT13=
EXTT14=
PLAYORDER=
